<svg width="56" height="53" viewBox="0 0 56 53" fill="none" xmlns="http://www.w3.org/2000/svg">
<path fill-rule="evenodd" clip-rule="evenodd" d="M12.7443 25.3156C10.4453 25.3156 8.29631 24.7481 6.2972 23.6131C4.34806 22.4288 2.79876 20.8743 1.64927 18.9497C0.549757 16.9758 0 14.8785 0 12.6578C0 10.4371 0.549757 8.36453 1.64927 6.43994C2.79876 4.46601 4.34806 2.91154 6.2972 1.77653C8.29631 0.592177 10.4453 0 12.7443 0C15.0433 0 17.1673 0.592177 19.1165 1.77653C21.0656 2.91154 22.5899 4.46601 23.6894 6.43994C24.8389 8.36453 25.4137 10.4371 25.4137 12.6578C25.4137 14.8785 24.8389 16.9758 23.6894 18.9497C22.5899 20.8743 21.0656 22.4288 19.1165 23.6131C17.1673 24.7481 15.0433 25.3156 12.7443 25.3156ZM12.7443 20.7263C14.8933 20.7263 16.6925 19.9614 18.1419 18.4316C19.5913 16.8524 20.3159 14.9278 20.3159 12.6578C20.3159 10.3385 19.5913 8.41387 18.1419 6.88408C16.6925 5.35429 14.8933 4.58939 12.7443 4.58939C10.5953 4.58939 8.77108 5.35429 7.27175 6.88408C5.82241 8.41387 5.09772 10.3385 5.09772 12.6578C5.09772 14.9278 5.82241 16.8524 7.27175 18.4316C8.77108 19.9614 10.5953 20.7263 12.7443 20.7263Z" fill="#0F0F11"/>
<path d="M9.29585 49.743L42.656 0.666202L46.6292 3.331L13.3441 52.3338L9.29585 49.743Z" fill="#0F0F11"/>
<path fill-rule="evenodd" clip-rule="evenodd" d="M43.3307 53C41.0317 53 38.8826 52.4325 36.8835 51.2975C34.9344 50.1131 33.3851 48.5587 32.2356 46.6341C31.1361 44.6601 30.5864 42.5628 30.5864 40.3422C30.5864 38.1215 31.1361 36.0489 32.2356 34.1243C33.3851 32.1504 34.9344 30.5959 36.8835 29.4609C38.8826 28.2765 41.0317 27.6844 43.3307 27.6844C45.6296 27.6844 47.7537 28.2765 49.7028 29.4609C51.652 30.5959 53.1763 32.1504 54.2758 34.1243C55.4253 36.0489 56 38.1215 56 40.3422C56 42.5628 55.4253 44.6601 54.2758 46.6341C53.1763 48.5587 51.652 50.1131 49.7028 51.2975C47.7537 52.4325 45.6296 53 43.3307 53ZM43.3307 48.4106C45.4797 48.4106 47.2789 47.6457 48.7283 46.1159C50.1776 44.5368 50.9023 42.6122 50.9023 40.3422C50.9023 38.0228 50.1776 36.0982 48.7283 34.5684C47.2789 33.0386 45.4797 32.2737 43.3307 32.2737C41.1816 32.2737 39.3574 33.0386 37.8581 34.5684C36.4087 36.0982 35.6841 38.0228 35.6841 40.3422C35.6841 42.6122 36.4087 44.5368 37.8581 46.1159C39.3574 47.6457 41.1816 48.4106 43.3307 48.4106Z" fill="#0F0F11"/>
</svg>
