<svg width="95" height="53" viewBox="0 0 95 53" fill="none" xmlns="http://www.w3.org/2000/svg">
<path d="M20.3184 23.3609C25.6209 23.6529 29.6461 25.113 32.3937 27.741C35.1896 30.3205 36.5876 33.703 36.5876 37.8884C36.5876 40.8085 35.8886 43.4123 34.4907 45.6997C33.0927 47.9385 31.0199 49.7149 28.2722 51.0289C25.5245 52.343 22.1743 53 18.2215 53C14.5579 53 11.0871 52.416 7.8092 51.2479C4.57946 50.0312 1.9764 48.4252 0 46.4298L2.53076 42.2686C4.21794 44.0207 6.45947 45.4564 9.25536 46.5757C12.0513 47.6465 15.04 48.1818 18.2215 48.1818C22.3671 48.1818 25.5727 47.2814 27.8384 45.4807C30.104 43.6313 31.2368 41.1006 31.2368 37.8884C31.2368 34.725 30.104 32.2429 27.8384 30.4421C25.5727 28.6414 22.1502 27.741 17.5707 27.741H13.9553V23.8719L27.983 6.13223H2.09692V1.46005H34.6353V5.1832L20.3184 23.3609Z" fill="#0F0F11"/>
<path fill-rule="evenodd" clip-rule="evenodd" d="M94.2924 26.281C94.2924 40.7956 82.6381 52.562 68.2617 52.562C53.8854 52.562 42.231 40.7956 42.231 26.281C42.231 11.7664 53.8854 0 68.2617 0C82.6381 0 94.2924 11.7664 94.2924 26.281ZM89.954 26.281C89.954 38.3765 80.242 48.1818 68.2617 48.1818C56.2814 48.1818 46.5695 38.3765 46.5695 26.281C46.5695 14.1855 56.2814 4.38017 68.2617 4.38017C80.242 4.38017 89.954 14.1855 89.954 26.281Z" fill="#0F0F11"/>
</svg>
